<mxfile host="Electron" agent="Mozilla/5.0 (Windows NT 10.0; Win64; x64) AppleWebKit/537.36 (KHTML, like Gecko) draw.io/26.0.16 Chrome/132.0.6834.196 Electron/34.2.0 Safari/537.36" version="26.0.16">
  <diagram name="第 1 页" id="ikjmBV7X6z7ggvGJINiY">
    <mxGraphModel dx="743" dy="539" grid="1" gridSize="10" guides="1" tooltips="1" connect="1" arrows="1" fold="1" page="1" pageScale="1" pageWidth="827" pageHeight="1169" math="0" shadow="0">
      <root>
        <mxCell id="0" />
        <mxCell id="1" parent="0" />
        <mxCell id="-RxJhz4TrMyCwbQ1seOL-1" value="" style="rounded=0;whiteSpace=wrap;html=1;" vertex="1" parent="1">
          <mxGeometry x="160" y="120" width="120" height="240" as="geometry" />
        </mxCell>
        <mxCell id="-RxJhz4TrMyCwbQ1seOL-2" value="工作请求" style="rounded=1;whiteSpace=wrap;html=1;fillColor=#dae8fc;strokeColor=#6c8ebf;" vertex="1" parent="1">
          <mxGeometry x="190" y="160" width="60" height="40" as="geometry" />
        </mxCell>
        <mxCell id="-RxJhz4TrMyCwbQ1seOL-3" value="工作完成" style="rounded=1;whiteSpace=wrap;html=1;fillColor=#fff2cc;strokeColor=#d6b656;" vertex="1" parent="1">
          <mxGeometry x="190" y="310" width="60" height="40" as="geometry" />
        </mxCell>
        <mxCell id="-RxJhz4TrMyCwbQ1seOL-4" value="应用程序" style="text;html=1;align=center;verticalAlign=middle;whiteSpace=wrap;rounded=0;" vertex="1" parent="1">
          <mxGeometry x="160" y="120" width="60" height="30" as="geometry" />
        </mxCell>
        <mxCell id="-RxJhz4TrMyCwbQ1seOL-5" value="" style="rounded=0;whiteSpace=wrap;html=1;" vertex="1" parent="1">
          <mxGeometry x="320" y="120" width="280" height="60" as="geometry" />
        </mxCell>
        <mxCell id="-RxJhz4TrMyCwbQ1seOL-6" value="" style="rounded=0;whiteSpace=wrap;html=1;" vertex="1" parent="1">
          <mxGeometry x="320" y="210" width="280" height="60" as="geometry" />
        </mxCell>
        <mxCell id="-RxJhz4TrMyCwbQ1seOL-7" value="" style="rounded=0;whiteSpace=wrap;html=1;" vertex="1" parent="1">
          <mxGeometry x="320" y="300" width="280" height="60" as="geometry" />
        </mxCell>
        <mxCell id="-RxJhz4TrMyCwbQ1seOL-8" value="WQE" style="rounded=1;whiteSpace=wrap;html=1;fillColor=#dae8fc;strokeColor=#6c8ebf;" vertex="1" parent="1">
          <mxGeometry x="530" y="130" width="60" height="40" as="geometry" />
        </mxCell>
        <mxCell id="-RxJhz4TrMyCwbQ1seOL-9" value="WQE" style="rounded=1;whiteSpace=wrap;html=1;fillColor=#dae8fc;strokeColor=#6c8ebf;" vertex="1" parent="1">
          <mxGeometry x="450" y="130" width="60" height="40" as="geometry" />
        </mxCell>
        <mxCell id="-RxJhz4TrMyCwbQ1seOL-10" value="WQE" style="rounded=1;whiteSpace=wrap;html=1;fillColor=#d5e8d4;strokeColor=#82b366;" vertex="1" parent="1">
          <mxGeometry x="530" y="220" width="60" height="40" as="geometry" />
        </mxCell>
        <mxCell id="-RxJhz4TrMyCwbQ1seOL-11" value="CQE" style="rounded=1;whiteSpace=wrap;html=1;fillColor=#d5e8d4;strokeColor=#82b366;" vertex="1" parent="1">
          <mxGeometry x="530" y="310" width="60" height="40" as="geometry" />
        </mxCell>
        <mxCell id="-RxJhz4TrMyCwbQ1seOL-12" value="SQ" style="text;html=1;align=center;verticalAlign=middle;whiteSpace=wrap;rounded=0;" vertex="1" parent="1">
          <mxGeometry x="310" y="120" width="60" height="30" as="geometry" />
        </mxCell>
        <mxCell id="-RxJhz4TrMyCwbQ1seOL-13" value="RQ" style="text;html=1;align=center;verticalAlign=middle;whiteSpace=wrap;rounded=0;" vertex="1" parent="1">
          <mxGeometry x="310" y="210" width="60" height="30" as="geometry" />
        </mxCell>
        <mxCell id="-RxJhz4TrMyCwbQ1seOL-14" value="CQ" style="text;html=1;align=center;verticalAlign=middle;whiteSpace=wrap;rounded=0;" vertex="1" parent="1">
          <mxGeometry x="310" y="300" width="60" height="30" as="geometry" />
        </mxCell>
        <mxCell id="-RxJhz4TrMyCwbQ1seOL-15" value="RDMA 网卡" style="ellipse;whiteSpace=wrap;html=1;aspect=fixed;" vertex="1" parent="1">
          <mxGeometry x="662" y="290" width="80" height="80" as="geometry" />
        </mxCell>
        <mxCell id="-RxJhz4TrMyCwbQ1seOL-16" value="CQE" style="rounded=1;whiteSpace=wrap;html=1;fillColor=#dae8fc;strokeColor=#6c8ebf;" vertex="1" parent="1">
          <mxGeometry x="450" y="310" width="60" height="40" as="geometry" />
        </mxCell>
        <mxCell id="-RxJhz4TrMyCwbQ1seOL-19" value="" style="endArrow=classic;html=1;rounded=0;strokeWidth=4;" edge="1" parent="1">
          <mxGeometry width="50" height="50" relative="1" as="geometry">
            <mxPoint x="320" y="330" as="sourcePoint" />
            <mxPoint x="250" y="330" as="targetPoint" />
          </mxGeometry>
        </mxCell>
        <mxCell id="-RxJhz4TrMyCwbQ1seOL-17" value="" style="endArrow=classic;html=1;rounded=0;strokeWidth=4;" edge="1" parent="1">
          <mxGeometry width="50" height="50" relative="1" as="geometry">
            <mxPoint x="250" y="180" as="sourcePoint" />
            <mxPoint x="320" y="150" as="targetPoint" />
          </mxGeometry>
        </mxCell>
        <mxCell id="-RxJhz4TrMyCwbQ1seOL-20" value="WQE" style="rounded=1;whiteSpace=wrap;html=1;fillColor=#dae8fc;strokeColor=#6c8ebf;" vertex="1" parent="1">
          <mxGeometry x="370" y="130" width="60" height="40" as="geometry" />
        </mxCell>
        <mxCell id="-RxJhz4TrMyCwbQ1seOL-21" value="" style="endArrow=classic;html=1;rounded=0;strokeWidth=4;edgeStyle=orthogonalEdgeStyle;curved=1;exitX=1;exitY=0.5;exitDx=0;exitDy=0;strokeColor=light-dark(#dae8fc, #ededed);entryX=0.5;entryY=0;entryDx=0;entryDy=0;" edge="1" parent="1" source="-RxJhz4TrMyCwbQ1seOL-5" target="-RxJhz4TrMyCwbQ1seOL-15">
          <mxGeometry width="50" height="50" relative="1" as="geometry">
            <mxPoint x="440" y="520" as="sourcePoint" />
            <mxPoint x="720" y="290" as="targetPoint" />
          </mxGeometry>
        </mxCell>
        <mxCell id="-RxJhz4TrMyCwbQ1seOL-22" value="" style="endArrow=classic;html=1;rounded=0;strokeWidth=4;exitX=0;exitY=0.5;exitDx=0;exitDy=0;" edge="1" parent="1" source="-RxJhz4TrMyCwbQ1seOL-15">
          <mxGeometry width="50" height="50" relative="1" as="geometry">
            <mxPoint x="670" y="330" as="sourcePoint" />
            <mxPoint x="600" y="330" as="targetPoint" />
          </mxGeometry>
        </mxCell>
        <mxCell id="-RxJhz4TrMyCwbQ1seOL-23" value="" style="endArrow=classic;html=1;rounded=0;strokeWidth=4;edgeStyle=orthogonalEdgeStyle;curved=1;exitX=1;exitY=0.5;exitDx=0;exitDy=0;fillColor=#d5e8d4;strokeColor=#82b366;" edge="1" parent="1" source="-RxJhz4TrMyCwbQ1seOL-6" target="-RxJhz4TrMyCwbQ1seOL-15">
          <mxGeometry width="50" height="50" relative="1" as="geometry">
            <mxPoint x="520" y="440" as="sourcePoint" />
            <mxPoint x="680" y="440" as="targetPoint" />
          </mxGeometry>
        </mxCell>
      </root>
    </mxGraphModel>
  </diagram>
</mxfile>
